HIERARCHY
ROOT hip
{
  OFFSET 0 0 0
  CHANNELS 6 Xposition Yposition Zposition Zrotation Yrotation Xrotation
  JOINT abdomen
  {
    OFFSET 0 20.6881 -0.73152
    CHANNELS 3 Zrotation Xrotation Yrotation
    JOINT chest
    {
      OFFSET 0 11.7043 -0.48768
      CHANNELS 3 Zrotation Xrotation Yrotation
      JOINT neck
      {
        OFFSET 0 22.1894 -2.19456
        CHANNELS 3 Zrotation Xrotation Yrotation
        JOINT head
        {
          OFFSET -0.24384 7.07133 1.2192
          CHANNELS 3 Zrotation Xrotation Yrotation
          JOINT leftEye
          {
            OFFSET 4.14528 8.04674 8.04672
            CHANNELS 3 Zrotation Xrotation Yrotation
            End Site
            {
              OFFSET 1 0 0
            }
          }
          JOINT rightEye
          {
            OFFSET -3.6576 8.04674 8.04672
            CHANNELS 3 Zrotation Xrotation Yrotation
            End Site
            {
              OFFSET 1 0 0
            }
          }
        }
      }
      JOINT rCollar
      {
        OFFSET -2.68224 19.2634 -4.8768
        CHANNELS 3 Zrotation Xrotation Yrotation
        JOINT rShldr
        {
          OFFSET -8.77824 -1.95073 1.46304
          CHANNELS 3 Zrotation Xrotation Yrotation
          JOINT rForeArm
          {
            OFFSET -28.1742 -1.7115 0.48768
            CHANNELS 3 Zrotation Xrotation Yrotation
            JOINT rHand
            {
              OFFSET -22.5879 0.773209 7.07136
              CHANNELS 3 Zrotation Xrotation Yrotation
              JOINT rThumb1
              {
                OFFSET -1.2192 -0.487915 3.41376
                CHANNELS 3 Zrotation Xrotation Yrotation
                JOINT rThumb2
                {
                  OFFSET -3.37035 -0.52449 3.41376
                  CHANNELS 3 Zrotation Xrotation Yrotation
                  End Site
                  {
                    OFFSET -1.78271 -1.18214 1.43049
                  }
                }
              }
              JOINT rIndex1
              {
                OFFSET -7.75947 0.938293 5.60832
                CHANNELS 3 Zrotation Xrotation Yrotation
                JOINT rIndex2
                {
                  OFFSET -2.54057 -0.884171 1.56538
                  CHANNELS 3 Zrotation Xrotation Yrotation
                  End Site
                  {
                    OFFSET -1.62519 -0.234802 1.16502
                  }
                }
              }
              JOINT rMid1
              {
                OFFSET -8.24714 1.18213 3.41376
                CHANNELS 3 Zrotation Xrotation Yrotation
                JOINT rMid2
                {
                  OFFSET -3.10165 -0.590103 1.0647
                  CHANNELS 3 Zrotation Xrotation Yrotation
                  End Site
                  {
                    OFFSET -2.48547 -0.328903 0.83742
                  }
                }
              }
              JOINT rRing1
              {
                OFFSET -8.82822 0.546677 1.51678
                CHANNELS 3 Zrotation Xrotation Yrotation
                JOINT rRing2
                {
                  OFFSET -2.60934 -0.819778 -0.0198488
                  CHANNELS 3 Zrotation Xrotation Yrotation
                  End Site
                  {
                    OFFSET -2.33842 -0.294052 0.168128
                  }
                }
              }
              JOINT rPinky1
              {
                OFFSET -8.27202 -0.0477905 -0.4584
                CHANNELS 3 Zrotation Xrotation Yrotation
                JOINT rPinky2
                {
                  OFFSET -1.82734 -0.647385 -0.700984
                  CHANNELS 3 Zrotation Xrotation Yrotation
                  End Site
                  {
                    OFFSET -1.69225 -0.51767 -0.607171
                  }
                }
              }
            }
          }
        }
      }
      JOINT lCollar
      {
        OFFSET 2.68224 19.2634 -4.8768
        CHANNELS 3 Zrotation Xrotation Yrotation
        JOINT lShldr
        {
          OFFSET 8.77824 -1.95073 1.46304
          CHANNELS 3 Zrotation Xrotation Yrotation
          JOINT lForeArm
          {
            OFFSET 28.1742 -1.7115 0.48768
            CHANNELS 3 Zrotation Xrotation Yrotation
            JOINT lHand
            {
              OFFSET 22.5879 0.773209 7.07136
              CHANNELS 3 Zrotation Xrotation Yrotation
              JOINT lThumb1
              {
                OFFSET 1.2192 -0.487915 3.41376
                CHANNELS 3 Zrotation Xrotation Yrotation
                JOINT lThumb2
                {
                  OFFSET 3.37035 -0.52449 3.41376
                  CHANNELS 3 Zrotation Xrotation Yrotation
                  End Site
                  {
                    OFFSET 1.78271 -1.18214 1.43049
                  }
                }
              }
              JOINT lIndex1
              {
                OFFSET 7.75947 0.938293 5.60832
                CHANNELS 3 Zrotation Xrotation Yrotation
                JOINT lIndex2
                {
                  OFFSET 2.54057 -0.884171 1.56538
                  CHANNELS 3 Zrotation Xrotation Yrotation
                  End Site
                  {
                    OFFSET 1.62519 -0.234802 1.16502
                  }
                }
              }
              JOINT lMid1
              {
                OFFSET 8.24714 1.18213 3.41376
                CHANNELS 3 Zrotation Xrotation Yrotation
                JOINT lMid2
                {
                  OFFSET 3.10165 -0.590103 1.0647
                  CHANNELS 3 Zrotation Xrotation Yrotation
                  End Site
                  {
                    OFFSET 2.48547 -0.328903 0.83742
                  }
                }
              }
              JOINT lRing1
              {
                OFFSET 8.82822 0.546677 1.51678
                CHANNELS 3 Zrotation Xrotation Yrotation
                JOINT lRing2
                {
                  OFFSET 2.60934 -0.819778 -0.0198488
                  CHANNELS 3 Zrotation Xrotation Yrotation
                  End Site
                  {
                    OFFSET 2.33842 -0.294052 0.168128
                  }
                }
              }
              JOINT lPinky1
              {
                OFFSET 8.27202 -0.0477905 -0.4584
                CHANNELS 3 Zrotation Xrotation Yrotation
                JOINT lPinky2
                {
                  OFFSET 1.82734 -0.647385 -0.700984
                  CHANNELS 3 Zrotation Xrotation Yrotation
                  End Site
                  {
                    OFFSET 1.69225 -0.51767 -0.607171
                  }
                }
              }
            }
          }
        }
      }
    }
  }
  JOINT rButtock
  {
    OFFSET -8.77824 4.35084 1.2192
    CHANNELS 3 Zrotation Xrotation Yrotation
    JOINT rThigh
    {
      OFFSET 0 -1.70687 -2.19456
      CHANNELS 3 Zrotation Xrotation Yrotation
      JOINT rShin
      {
        OFFSET 0 -36.8199 0.73152
        CHANNELS 3 Zrotation Xrotation Yrotation
        JOINT rFoot
        {
          OFFSET 0.73152 -45.1104 -5.12064
          CHANNELS 3 Zrotation Xrotation Yrotation
          End Site
          {
            OFFSET -1.1221 -3.69964 12.103
          }
        }
      }
    }
  }
  JOINT lButtock
  {
    OFFSET 8.77824 4.35084 1.2192
    CHANNELS 3 Zrotation Xrotation Yrotation
    JOINT lThigh
    {
      OFFSET 0 -1.70687 -2.19456
      CHANNELS 3 Zrotation Xrotation Yrotation
      JOINT lShin
      {
        OFFSET 0 -36.8199 0.73152
        CHANNELS 3 Zrotation Xrotation Yrotation
        JOINT lFoot
        {
          OFFSET -0.73152 -45.1104 -5.12064
          CHANNELS 3 Zrotation Xrotation Yrotation
          End Site
          {
            OFFSET 1.1221 -3.69964 12.103
          }
        }
      }
    }
  }
}
MOTION
Frames:	4
Frame Time:	0.00833333
169.272 85.1731 -7.62113 0.0 0.0 0.0 0.512932 -0.00341813 0.0146932 0.141686 -0.00540197 0.0245503 7.79682e-15 -7.95139e-16 -6.21202e-17 2.3497e-14 3.18055e-15 -2.08103e-16 -0.0 0.0 0.0 -0.0 0.0 0.0 4.02419e-15 -5.82377e-19 1.49089e-16 8.42836e-14 -1.49089e-16 3.97569e-16 1.41937e-12 -4.24604e-13 -3.81667e-14 1.62084e-11 4.11733e-13 -1.33583e-13 3.8239e-11 -2.90436e-14 -3.33958e-13 6.60255e-11 -5.08889e-14 -5.79656e-13 3.82446e-11 -2.98177e-14 -3.435e-13 7.73091 5.47488 0.417314 3.82375e-11 -2.96189e-14 -3.30778e-13 2.90554 0.965183 0.102902 3.82381e-11 -2.97183e-14 -3.33163e-13 10.2786 0.731801 0.0259123 3.82271e-11 -2.62396e-14 -3.21236e-13 2.22167 -0.733487 -0.20892 3.92745e-15 7.76503e-19 -2.48481e-16 8.07617e-14 1.30452e-16 -1.19271e-15 1.41425e-12 4.25996e-13 -2.22639e-14 1.62185e-11 -4.19709e-13 -1.20861e-13 3.82529e-11 8.72537e-15 -3.27597e-13 6.60752e-11 1.27222e-14 -5.61368e-13 3.8247e-11 9.54166e-15 -3.18055e-13 -7.73091 5.47488 -0.417314 3.82536e-11 8.34896e-15 -3.27597e-13 -2.90554 0.965183 -0.102902 3.82412e-11 9.1441e-15 -3.26802e-13 -10.2786 0.731801 -0.0259123 3.82589e-11 1.07344e-14 -3.40319e-13 -2.22167 -0.733487 0.20892 -2.03217e-16 0.0 -3.88251e-19 0.86001 -4.41146 -0.0729706 -0.00213126 2.43941 -0.0112534 -0.474444 1.97258 0.093838 2.03217e-16 0.0 3.88251e-19 -0.0776898 -2.42095 0.0232543 0.0076678 -1.16603 0.0659996 0.465778 3.58744 -0.125216
162.397 82.9423 -13.1823 -13.3453 -76.3619 15.0621 1.90248 3.5044 0.373039 0.225033 0.540455 0.209397 1.92911 1.86486 0.978062 -2.77323 -2.42576 1.34119 -0.0 0.0 0.0 -0.0 0.0 0.0 -8.00419e-16 -4.71187e-13 -1.89382e-13 21.893 7.27411 0.102228 -4.42333 -2.05161 6.86349 0.0425018 -4.57877 -0.636122 6.89164e-10 7.12893e-10 -5.62115e-11 1.19507e-09 1.23335e-09 -9.04284e-11 6.89172e-10 7.12892e-10 -5.6222e-11 7.73091 5.47488 0.417314 6.89163e-10 7.12893e-10 -5.621e-11 2.90554 0.965183 0.102902 6.89164e-10 7.12891e-10 -5.62106e-11 10.2786 0.731801 0.0259123 6.89154e-10 7.12895e-10 -5.62003e-11 2.22167 -0.733487 -0.20892 -8.66793e-16 -4.71186e-13 -1.89752e-13 -21.7493 8.23926 -1.17214 4.88012 -2.36689 -7.45307 -0.0214276 -3.25082 0.454227 6.82077e-10 -6.81833e-10 -8.53322e-10 1.18502e-09 -1.17979e-09 -1.47113e-09 6.82073e-10 -6.81831e-10 -8.53316e-10 -7.73091 5.47488 -0.417314 6.82078e-10 -6.81828e-10 -8.53325e-10 -2.90554 0.965183 -0.102902 6.82067e-10 -6.81831e-10 -8.53323e-10 -10.2786 0.731801 -0.0259123 6.82084e-10 -6.81826e-10 -8.53334e-10 -2.22167 -0.733487 0.20892 -2.03217e-16 0.0 -3.88251e-19 4.72838 -9.83561 2.14772 -0.0584458 11.445 0.0128351 -1.29878 -3.92859 -6.79706 2.03217e-16 0.0 3.88251e-19 1.64243 -4.93377 0.263715 0.0267559 16.7831 -0.162069 0.379107 4.57168 -0.0597153
160.664 82.96 -13.1027 -16.8745 -76.4014 18.0949 3.29808 7.19062 0.736969 0.323679 1.12159 0.398454 3.91079 3.83085 2.02417 -5.61139 -4.98216 2.77977 -0.0 0.0 0.0 -0.0 0.0 0.0 -9.09361e-15 -1.01451e-12 -3.9924e-13 45.0218 14.9302 0.17563 -8.55303 -4.11026 14.1232 -0.0244241 -9.39784 -1.31952 1.43136e-09 1.51182e-09 -1.15587e-10 2.48227e-09 2.61552e-09 -1.8538e-10 1.43137e-09 1.51182e-09 -1.15598e-10 7.73091 5.47488 0.417314 1.43136e-09 1.51182e-09 -1.15587e-10 2.90554 0.965183 0.102902 1.43136e-09 1.51182e-09 -1.15586e-10 10.2786 0.731801 0.0259123 1.43135e-09 1.51182e-09 -1.15577e-10 2.22167 -0.733487 -0.20892 -9.12685e-15 -1.01451e-12 -3.99582e-13 -44.3623 16.9612 -2.53017 9.37565 -4.73561 -15.3727 0.0123965 -6.70242 0.941506 1.41858e-09 -1.4319e-09 -1.80828e-09 2.46484e-09 -2.47758e-09 -3.11738e-09 1.41858e-09 -1.4319e-09 -1.80828e-09 -7.73091 5.47488 -0.417314 1.41859e-09 -1.43189e-09 -1.80829e-09 -2.90554 0.965183 -0.102902 1.41858e-09 -1.4319e-09 -1.80828e-09 -10.2786 0.731801 -0.0259123 1.41859e-09 -1.43189e-09 -1.80829e-09 -2.22167 -0.733487 0.20892 -2.03217e-16 0.0 -3.88251e-19 9.26551 -15.6357 4.58943 -0.129102 20.9819 0.036841 -3.70391 -9.8655 -14.2471 2.03217e-16 0.0 3.88251e-19 3.47142 -7.40316 0.53705 0.232186 35.6492 -0.47652 0.28226 5.71365 -0.0692451
158.919 82.9888 -12.9735 -19.5476 -76.6243 20.3474 4.54801 10.5183 1.10623 0.381156 1.6321 0.579299 5.59566 5.58804 2.94665 -7.97695 -7.26128 4.05251 -0.0 0.0 0.0 -0.0 0.0 0.0 -1.04496e-14 -1.41356e-12 -5.68444e-13 65.5959 21.822 0.327699 -11.8243 -5.80229 20.688 -0.18508 -13.7294 -1.95825 1.99101e-09 2.13874e-09 -1.67967e-10 3.45316e-09 3.70015e-09 -2.70126e-10 1.99103e-09 2.13874e-09 -1.67979e-10 7.73091 5.47488 0.417314 1.99101e-09 2.13874e-09 -1.67968e-10 2.90554 0.965183 0.102902 1.99102e-09 2.13873e-09 -1.67966e-10 10.2786 0.731801 0.0259123 1.99101e-09 2.13874e-09 -1.67958e-10 2.22167 -0.733487 -0.20892 -1.04553e-14 -1.41356e-12 -5.6876e-13 -64.151 24.6742 -3.83029 12.8349 -6.62111 -22.4982 0.0922605 -9.74997 1.38043 1.96973e-09 -2.04552e-09 -2.55931e-09 3.42292e-09 -3.53941e-09 -4.41227e-09 1.96973e-09 -2.04551e-09 -2.55931e-09 -7.73091 5.47488 -0.417314 1.96973e-09 -2.0455e-09 -2.55932e-09 -2.90554 0.965183 -0.102902 1.96972e-09 -2.04551e-09 -2.55932e-09 -10.2786 0.731801 -0.0259123 1.96973e-09 -2.0455e-09 -2.55932e-09 -2.22167 -0.733487 0.20892 -2.03217e-16 0.0 -3.88251e-19 13.8004 -20.5654 6.93803 -0.19649 29.456 0.0691669 -7.22307 -14.7859 -21.2672 2.03217e-16 0.0 3.88251e-19 5.14683 -9.95871 0.753093 0.710928 52.6774 -0.985462 0.198974 6.54013 0.0718325
